# xmcd
#
# Track frame offsets:
#	150
#	13702
#	26062
#	38850
#	49367
#	66578
#	79493
#	93418
#	108559
#	119266
#
# Disc length: 1757 seconds
#
# Revision: 0
# Processed by: cddbd v1.4PL0 Copyright (c) Steve Scherf et al.
# Submitted via: dBpowerAMP V4.0
#
DISCID=8d06db0a
DTITLE=Los Incomparables de Tijuana - La vida es alegria
DYEAR=1900
DGENRE=Banda
TTITLE0=01 - Te aplacas o te aplaco
TTITLE1=02 - La vida es alegria
TTITLE2=03 - Que sabes tu
TTITLE3=04 - No hace falta
TTITLE4=05 - Vamonos
TTITLE5=06 - Me gusta tener de a dos
TTITLE6=07 - Por quererte asi
TTITLE7=08 - No te sorprendas
TTITLE8=09 - Si tu quisieras
TTITLE9=10 - Tamarindo
EXTD=Necro Blue RIP
EXTT0=
EXTT1=
EXTT2=
EXTT3=
EXTT4=
EXTT5=
EXTT6=
EXTT7=
EXTT8=
EXTT9=
PLAYORDER=
